<?xml version="1.0" standalone="no"?><!DOCTYPE svg PUBLIC "-//W3C//DTD SVG 1.1//EN" "http://www.w3.org/Graphics/SVG/1.1/DTD/svg11.dtd"><svg t="1511247667331" class="icon" style="" viewBox="0 0 1024 1024" version="1.1" xmlns="http://www.w3.org/2000/svg" p-id="4741" id="mx_n_1511247667332" xmlns:xlink="http://www.w3.org/1999/xlink" width="200" height="200"><defs><style type="text/css"></style></defs><path d="M512 0C229.22752 0 0 229.23264 0 512c0 282.77248 229.22752 512 512 512s512-229.23264 512-512S794.76736 0 512 0zM317.93152 450.19648c-0.91648 37.37088 6.33856 93.45024-38.76864 93.45024-30.66368 0-31.57504-36.52608-31.57504-36.52608l-19.8144-179.74784S213.32992 232.96 350.35648 230.25664c137.0368-2.69824 151.48032 114.93376 151.48032 114.93376h115.38944s27.06432 5.24288 26.09152 37.37088c-0.91136 32.01536-22.49216 31.17056-22.49216 31.17056H351.27808c0-0.05632-32.43008-0.95744-33.34656 36.46464zM640 519.11168a21.33504 21.33504 0 0 1-21.33504 21.33504H405.33504a21.33504 21.33504 0 1 1 0-42.67008h213.33504a21.33504 21.33504 0 0 1 21.32992 21.33504z m33.6384 274.688c-137.02656 2.64704-151.4752-114.816-151.4752-114.816H406.71744s-27.06432-5.41184-26.09152-37.4272c0.91136-32.07168 22.5536-31.17056 22.5536-31.17056h269.60384s32.37376 0.90112 33.34144-36.41344c0.9728-37.48352-6.33856-93.56288 38.76864-93.56288 30.65856 0 31.63136 36.46976 31.63136 36.46976l19.8144 179.80416c-0.06144-0.00512 14.32576 94.35136-122.7008 97.11616z" fill="#1afa29" p-id="4742" class=""></path></svg>