<?xml version="1.0" standalone="no"?><!DOCTYPE svg PUBLIC "-//W3C//DTD SVG 1.1//EN" "http://www.w3.org/Graphics/SVG/1.1/DTD/svg11.dtd"><svg t="1511255463514" class="icon" style="" viewBox="0 0 1024 1024" version="1.1" xmlns="http://www.w3.org/2000/svg" p-id="3991" xmlns:xlink="http://www.w3.org/1999/xlink" width="200" height="200"><defs><style type="text/css"></style></defs><path d="M388.004193 102.4h247.97749c82.258979 0 123.374345 0 167.625269 13.982897a174.178869 174.178869 0 0 1 103.996027 103.953655c13.997021 44.349793 13.997021 85.451034 13.997021 167.653517v248.019862c0 82.202483 0 123.303724-13.997021 167.653517a174.178869 174.178869 0 0 1-103.996027 103.953655c-44.250924 13.982897-85.36629 13.982897-167.625269 13.982897H388.004193c-82.230731 0-123.360221 0-167.625269-13.982897a174.164745 174.164745 0 0 1-103.981903-103.953655c-13.997021-44.349793-13.997021-85.451034-13.997021-167.653517V387.990069c0-82.202483 0-123.303724 13.997021-167.653517a174.164745 174.164745 0 0 1 103.981903-103.953655c44.279172-13.982897 85.394538-13.982897 167.625269-13.982897" fill="#FF9343" p-id="3992"></path><path d="M372.764248 329.092414c56.35531 8.615724 69.674372 75.564138 130.196304 74.010483 58.74229-1.412414 80.775945-77.682759 140.309186-70.62069 99.264441 11.581793 165.252414 332.199724 78.120607 377.255724-23.290703 12.005517-55.94571 3.672276-81.199669-19.915034a254.234483 254.234483 0 0 0-139.348745-54.801656 166.396469 166.396469 0 0 0-109.914041 29.801931l-36.567393 27.965794c-18.686234 16.666483-38.064552 31.073103-62.414566 18.926344-104.801103-52.25931-16.807724-397.453241 80.818317-382.622896z m215.943945 203.670069a25.776552 25.776552 0 1 0 25.423448 25.847172 25.649434 25.649434 0 0 0-25.423448-25.847172z m47.019255-81.072552a25.776552 25.776552 0 1 0 25.423449 25.705931 25.621186 25.621186 0 0 0-25.423449-25.705931zM396.182069 487.282759h-49.279117v38.841379l49.250869-0.141241v51.411862h41.524965l0.070621-51.411862h47.951448V487.282759h-48.022069v-50.705656l-41.524965-0.141241v50.846897z" fill="#FFFFFF" p-id="3993"></path></svg>