<?xml version="1.0" standalone="no"?><!DOCTYPE svg PUBLIC "-//W3C//DTD SVG 1.1//EN" "http://www.w3.org/Graphics/SVG/1.1/DTD/svg11.dtd"><svg t="1510646990550" class="icon" style="" viewBox="0 0 1027 1024" version="1.1" xmlns="http://www.w3.org/2000/svg" p-id="4467" xmlns:xlink="http://www.w3.org/1999/xlink" width="200.5859375" height="200"><defs><style type="text/css"></style></defs><path d="M514.327273 0C228.072727 0 0 230.4 0 514.327273 0 795.927273 230.4 1024 509.672727 1024c283.927273 0 516.654545-228.072727 516.654545-509.672727C1026.327273 230.4 795.927273 0 514.327273 0L514.327273 0zM512 937.890909C276.945455 937.890909 86.109091 747.054545 86.109091 512c0-237.381818 190.836364-428.218182 428.218182-428.218182C749.381818 86.109091 940.218182 279.272727 940.218182 512 940.218182 747.054545 747.054545 937.890909 512 937.890909L512 937.890909zM512 937.890909" p-id="4468" fill="#8a8a8a"></path><path d="M800.581818 223.418182C791.272727 211.781818 774.981818 209.454545 761.018182 216.436364l-356.072727 167.563636c-6.981818 2.327273-13.963636 9.309091-16.290909 16.290909L216.436364 761.018182C209.454545 774.981818 211.781818 791.272727 223.418182 800.581818c6.981818 6.981818 16.290909 9.309091 25.6 9.309091 4.654545 0 9.309091-2.327273 13.963636-4.654545l353.745455-169.890909c6.981818-2.327273 11.636364-9.309091 16.290909-16.290909l174.545455-358.4C814.545455 251.345455 812.218182 235.054545 800.581818 223.418182L800.581818 223.418182zM514.327273 584.145455c-39.563636 0-69.818182-30.254545-69.818182-69.818182 0-39.563636 30.254545-69.818182 69.818182-69.818182 37.236364 0 69.818182 30.254545 69.818182 69.818182C584.145455 553.890909 551.563636 584.145455 514.327273 584.145455L514.327273 584.145455zM514.327273 584.145455" p-id="4469" fill="#8a8a8a"></path></svg>