<?xml version="1.0" standalone="no"?><!DOCTYPE svg PUBLIC "-//W3C//DTD SVG 1.1//EN" "http://www.w3.org/Graphics/SVG/1.1/DTD/svg11.dtd"><svg t="1510647385041" class="icon" style="" viewBox="0 0 1024 1024" version="1.1" xmlns="http://www.w3.org/2000/svg" p-id="12849" xmlns:xlink="http://www.w3.org/1999/xlink" width="200" height="200"><defs><style type="text/css"></style></defs><path d="M907.25 991.999h-791.408l-5.326-3.082c-3.129-1.807-30.996-18.079-44.585-29.373-22.387-18.571-34.439-44.664-33.904-73.456l0.101-7.72c0.146-15.47 0.3-31.476 4.622-47.791 10.147-38.434 38.65-63.343 66.974-85.596 37.078-29.153 80.894-53.883 142.053-80.176 29.125-12.52 60.257-24.53 95.173-36.647 14.968-5.2 30.597-21.474 39.818-41.429 7.294-15.78 9.456-31.516 5.925-42.591l-1.704-2.009c-41.535-50.364-74.557-95.058-90.196-172.635-12.574-62.318-10.768-121.2 5.359-174.999 24.713-82.489 78.076-136.112 154.295-155.083 11.505-2.868 22.687-4.889 33.767-6.072v-1.272l46.649-0.067v1.339c11.068 1.183 22.274 3.204 33.788 6.083 76.207 18.96 129.559 72.583 154.285 155.070 16.103 53.791 17.908 112.66 5.366 174.99-15.682 77.596-48.694 122.294-90.216 172.645l-1.517 1.788c-0.068 0.065-0.111 0.134-0.156 0.202-3.542 11.182-1.38 26.874 5.903 42.609 9.223 19.974 24.837 36.227 39.806 41.403 34.819 12.122 65.937 24.108 95.188 36.673 61.145 26.294 104.939 51.024 142.053 80.176 27.064 21.271 56.803 47.163 66.962 85.619 4.298 16.25 4.454 32.228 4.611 47.677l0.113 7.812c0.533 28.792-11.517 54.886-33.928 73.477-13.588 11.273-41.412 27.544-44.551 29.351l-5.326 3.083zM511.452 77.78h-0.3c-14.916 0.079-29.851 2.040-45.677 5.993-60.602 15.077-101.521 56.751-121.639 123.866-14.134 47.175-15.549 97.161-4.332 152.795 12.518 62.052 34.994 97.216 80.659 152.593 2.842 3.293 6.274 7.277 8.477 12.943 8.832 22.833 6.471 51.965-6.471 79.977-14.611 31.602-39.384 56.045-66.271 65.395-33.87 11.765-63.998 23.373-92.123 35.468-57.382 24.662-98.058 47.542-131.906 74.148-23.154 18.17-44.475 36.54-51.024 61.337-2.86 10.783-2.974 23.279-3.096 36.516l-0.101 8.102c-0.278 15.043 5.571 27.633 17.397 37.433 7.463 6.206 23.433 16.137 33.102 21.938h766.781c9.669-5.8 25.662-15.756 33.081-21.916 11.851-9.82 17.709-22.411 17.419-37.431l-0.113-8.212c-0.108-13.192-0.243-25.673-3.094-36.406-6.549-24.82-27.868-43.191-51.014-61.36-33.859-26.606-74.534-49.486-131.896-74.148-28.221-12.142-58.363-23.75-92.133-35.488-26.884-9.331-51.657-33.773-66.271-65.376-12.94-28.013-15.305-57.144-6.48-79.953 2.138-5.635 5.635-9.652 7.706-12.053 46.423-56.282 68.92-91.456 81.441-153.508 11.205-55.646 9.802-105.633-4.343-152.795-20.116-67.116-61.015-108.789-121.605-123.857-15.837-3.962-30.784-5.923-45.698-6.002h-0.476z" p-id="12850" fill="#8a8a8a"></path></svg>