<?xml version="1.0" standalone="no"?><!DOCTYPE svg PUBLIC "-//W3C//DTD SVG 1.1//EN" "http://www.w3.org/Graphics/SVG/1.1/DTD/svg11.dtd"><svg t="1510056278880" class="icon" style="" viewBox="0 0 1000 1000" version="1.1" xmlns="http://www.w3.org/2000/svg" p-id="5204" id="mx_n_1510056278882" xmlns:xlink="http://www.w3.org/1999/xlink" width="200" height="200"><defs><style type="text/css"></style></defs><path d="M346.6332 824.5809 98.4573 908.3651l122.7138-142.6413C106.5721 691.2753 32.5073 574.4875 32.5073 443.6112c0-223.9971 216.8099-406.6713 482.6506-406.6713 265.8397 0 482.6486 182.6741 482.6486 406.6713 0 223.9821-216.8089 406.6563-482.6486 406.6563C455.9256 850.2675 399.1457 841.1587 346.6332 824.5809L346.6332 824.5809zM297.9972 375.4934c-32.7312 0-59.2692 26.537-59.2692 59.2668 0 32.7308 26.5381 59.2678 59.2692 59.2678 32.7321 0 59.2702-26.537 59.2702-59.2678C357.2674 402.0304 330.7293 375.4934 297.9972 375.4934L297.9972 375.4934zM732.3165 375.4934c-32.7312 0-59.2613 26.537-59.2613 59.2668 0 32.7308 26.5301 59.2678 59.2613 59.2678 32.7391 0 59.2692-26.537 59.2692-59.2678C791.5848 402.0304 765.0547 375.4934 732.3165 375.4934L732.3165 375.4934zM515.1578 375.4934c-32.7331 0-59.2632 26.537-59.2632 59.2668 0 32.7308 26.5301 59.2678 59.2632 59.2678 32.7312 0 59.2692-26.537 59.2692-59.2678C574.4261 402.0304 547.889 375.4934 515.1578 375.4934z" fill="#00CC00" p-id="5205" class=""></path></svg>