<?xml version="1.0" standalone="no"?><!DOCTYPE svg PUBLIC "-//W3C//DTD SVG 1.1//EN" "http://www.w3.org/Graphics/SVG/1.1/DTD/svg11.dtd"><svg t="1510045272783" class="icon" style="" viewBox="0 0 1024 1024" version="1.1" xmlns="http://www.w3.org/2000/svg" p-id="14829" xmlns:xlink="http://www.w3.org/1999/xlink" width="200" height="200"><defs><style type="text/css"></style></defs><path d="M60.212094 86.076297l25.857071-25.857071 877.706502 877.706502-25.857071 25.857071-877.706502-877.706502ZM842.000457 673.142857l0-277.321143c0-134.857143-109.999543-259.249371-246.857143-296.356571l0-2.322286c0-45.357714-36.928-82.285714-82.285714-82.285714s-82.285714 36.928-82.285714 82.285714l0 2.322286c-54.785829 14.857143-105.071543 43.856457-145.929143 81.749943l580.608 580.608C851.9296 740.143543 842.000457 711.427657 842.000457 673.142857zM183.714743 395.821714l0 277.321143c0 104.643657-73.393371 139.713829-90.607543 146.499657-12.500114 6.392686-21.1072 19.320686-21.1072 34.357029 0 21.321143 17.250743 38.571886 38.571886 38.571886l275.5712 0c5.893486 65.142857 60.072229 116.571429 126.714514 116.571429s120.821029-51.428571 126.714514-116.571429l149.571657 0L200.821029 304.250514C189.893486 333.571657 183.714743 364.392229 183.714743 395.821714zM565.893486 892.571429c-5.357714 24.643657-26.784914 43.428571-53.035886 43.428571s-47.643429-18.750171-52.999314-43.428571L565.893486 892.571429z" p-id="14830"></path></svg>