<?xml version="1.0" standalone="no"?><!DOCTYPE svg PUBLIC "-//W3C//DTD SVG 1.1//EN" "http://www.w3.org/Graphics/SVG/1.1/DTD/svg11.dtd"><svg t="1510019606049" class="icon" style="" viewBox="0 0 1024 1024" version="1.1" xmlns="http://www.w3.org/2000/svg" p-id="2636" xmlns:xlink="http://www.w3.org/1999/xlink" width="200" height="200"><defs><style type="text/css"></style></defs><path d="M530.962963 512l201.007407-201.102222a14.222222 14.222222 0 0 0 0-20.100741L520.438519 79.265185a14.222222 14.222222 0 0 0-24.272593 10.050371l0.568889 388.74074-189.62963-189.629629a14.222222 14.222222 0 0 0-20.100741 20.10074L490.287407 512 290.133333 712.438519a14.222222 14.222222 0 1 0 20.100741 20.10074l186.026667-186.026666 0.568889 388.171851a14.222222 14.222222 0 0 0 24.651851 10.050371l210.488889-210.962963a14.222222 14.222222 0 0 0 0-20.100741z m170.666667-211.152593L525.179259 477.487407l-0.474074-353.754074zM525.179259 900.740741l-0.474074-353.754074L701.62963 723.721481z" p-id="2637" fill="#ffffff"></path></svg>